
<svg xmlns="http://www.w3.org/2000/svg" version="1.1" xmlns:xlink="http://www.w3.org/1999/xlink" preserveAspectRatio="none" x="0px" y="0px" width="775px" height="380px" viewBox="0 0 775 380">
<defs>
<g id="Layer0_0_FILL">
<path fill="#FF0000" stroke="none" d="
M 707.35 139.25
Q 704.65 129.2 698.95 120.5 717.85 118.3 736.75 136.2 746.9 145.85 752.95 156.5 756.65 150.2 754 140.85 728.3 50.1 630.95 52.5 597.3 59.1 568.95 78.5 524.6310546875 108.984375 476.35 117.5 474.414453125 113.8962890625 469.55 112.05 455.8 106.8 451.5 93.6 435.2 43.7 393.95 15.5 391.15 23.75 385.7 32.2 370.75 55.55 343.35 37.75 315.65 19.75 319.3 56.2 323.9 102.4 352.2 134 352.3546875 133.687890625 352.5 133.35 360.4330078125 143.64453125 371.2 150 371.6 149.6 371.65 149.2 372.85 142.7 372.45 135.75 383.95 145.95 397.95 148.25 398.2 147.5 398.25 146.75 398.45 141.1 398.45 135.5 406.2 145.05 416.95 143.25 417.2 142.85 417.3 142.45 418.88984375 131.5298828125 416.15 122.8 427.1205078125 131.4587890625 433.2 143.85 438.716015625 155.1765625 442.55 164.75 433.572265625 154.7703125 422.95 145.5 419.75 146.25 420.05 150.25 420.65 157.3 420.2 164.25 419.45 164.25 419 163.85 410.7 157.15 401.45 155 399.9 157.1 400.15 160 400.95 168.05 404.45 175 392.65 169.8 381.7 168.75 381.55 172.1 382.35 175.5 386.8 194.4 400.95 200.5 402.1 197.75 400.2 195.4 392.8 186.05 388.2 175 398.1 181.75 409.95 180.25 410.8 178.15 410.2 175.8 408.6 169.5 406.45 163.75 414.9 170.3 425.2 169 425.65 166.8 425.6 164.5 425.45 160 425.45 155.5 425.7 155.5 425.8 155.6 432.6599609375 167.1822265625 443.05 166 443.5259765625 167.1447265625 443.95 168.25 444.35 168 444.35 167.7 448.2 132.7 414.95 117.5 411.2103515625 118.8728515625 414.1 121.2 410.92578125 128.0484375 412.45 138 402.9 131.65 394.45 125 393.95 125.75 393.9 126.5 393.45 134.35 393.45 142.25 381.35 131.65 367.7 129.75 367.6 130.5 367.6 131.25 367.65 136 367.2 140.5 361.222265625 130.3267578125 353.2 127.25 352.7044921875 124.4833984375 350.6 121.7 345.30859375 114.7390625 341.15 107.4 349.659375 109.234375 359.5 103.05 369.8 96.5 369.95 86.75 369.6 86.35 369.2 86.35 349.35 84.55 330.95 79.5 330.414453125 79.6490234375 330 79.8 324.601953125 58.636328125 327.45 35 335.1 42.55 345.75 46.2 392.6 62.35 396.45 21.25 424.1 44.4 433.95 78.35 444.1171875 113.4859375 473.95 120.05 475.3642578125 122.894140625 480.45 121.9 531 112.1 575.45 81.4 594.6 68.2 617.45 64.2 716.75 46.75 747.45 137.5 738.9 130.3 729.95 123.5 711.1 109.1 688.45 115.5 688.45 115.85 688.65 116.05 704.6 133.9 704.65 158.25 704.65 166.2 699.45 171.75 693 151.5 675.75 137.9 664.65 129.1 653.45 131.5 655.6 136.3 657 141.35 660.95 156.2 654.6 169.35 652.75 173.25 650.2 175.25 643.5 148.45 616.15 145.5 610.81171875 144.93203125 606.4 146.5 606.455859375 146.4708984375 606.5 146.45 606.4095703125 146.48828125 606.3 146.5
L 606.25 146.55 606.25 146.55
Q 605.3587890625 146.88125 604.5 147.3 539.2609375 174.4990234375 499.45 174.75 501.1837890625 175.229296875 502.9 175.65 538.7658203125 184.2314453125 569.8 164.4 573.10546875 162.28671875 602.55 148.3 598.248046875 150.65234375 593.85 152.8 630.758984375 141.630078125 648.95 183.5 653.5 182.45 656.6 178.3 666.5 164.9 664.05 147.15 663.4 142.65 662.45 138.25 683.6 149.35 691.9 171.85 693.95 177.35 695.45 183 714.95 167.85 707.35 139.25
M 361.95 91.5
Q 356.3 94.9 350.45 97.4 344.0029296875 100.0798828125 339.1 103.6 333.8005859375 93.343359375 330.7 82.35 346.8212890625 90.115625 361.95 91.5
M 329.2 99.75
Q 329.35 99 329.05 98.65 259.95 27 155 38.5 136.1 42.45 117.7 48.95 48.45 73.45 53.75 146.45 56.05 178.65 81.75 191.75 82.55 184.25 81 176.45 75.05 146.5 98.2 128.35 102.9 124.65 108.5 123.75 105.7 140.1 113 152.65 122.9 169.6 142.1 175.05 142.75 175.25 143.5 175 141.45 160.1 143.75 144.85 146.3 128.4 161.75 120.5 162 120.35 162.5 120.75 157.35 135.5 163.2 148.85 166.5 156.5 174.1 159.05 174.6 159.25 175.25 159 177.2 154.4 179.4 149.65 194.6 116.9 232.65 126.3 267.168359375 134.8052734375 304.85 171.3 304.874609375 171.350390625 304.9 171.35 311.359375 175.73515625 319 177.85 322.978125 178.96796875 365.55 201.45 364.9806640625 201.228125 364.4 200.95 391.56015625 224.4232421875 395.85 265.6 402.8 332.15 466.7 349.75 468.2 343.25 463.2 337.4 450.7 323 451.45 303.25 451.85 303.5 452.15 303.8 472.25 325.4 497.95 331.25 498 327.05 495.85 322.8 488.7 308.95 485.45 293.75 487.2 295.6 489.55 297.9 511.85 319.35 536.2 335 538.355078125 327.2978515625 539.15 318.05 539.9439453125 308.8640625 520.3 256.25 500.6455078125 203.68203125 502.9 175.65 491.0369140625 206.5201171875 507.65 238.1 529.55 279.7 532.2 326.5 530.35 325.3 528.45 323.5 505.15 300.9 480.2 286.25 479.05 290.45 479.95 295.35 482.85 310.7 490.2 324.25 488.8 324.05 487.7 323.25 467.15 307.9 447.2 296.25 445.9 301.85 446 308.25 446.25 327.35 457.45 342 424 331.35 413 297.1 400.25 257.2 384.25 218.45 379.669921875 207.398046875 369.15 203
L 369.05 202.95
Q 309.0017578125 167.4013671875 294.95 152.5 294.4419921875 153.374609375 294.1 154.25 277.7251953125 134.7041015625 251.55 124.65 193.85 102.5 171.5 150.75 170.7 148.75 169.55 146.95 162.7 136.45 166.25 124.15 167.5 120 167.25 115.5 167.25 115.1 167 114.75 153.7 113.8 144.4 126.2 130.9 144.1 137.15 166.1 137.45 167.1 138.25 168 121.15 158.7 116.1 140.3 113.15 129.55 113.8 118.45 113.85 117.75 113.25 117 103.75 117.7 95.55 123.55 69.95 141.9 73.85 174.55 74.35 178.8 75.25 182.5 52.95 147.5 64.85 105.6 68.9 91.2 80.3 81.35 133.35 35.55 207.65 41.9 239.3 44.6 264.85 61.45 298.05 83.4 329.2 99.75
M 304.85 171.3
Q 293.2017578125 161.3263671875 299.15 166.8 301.8724609375 169.30234375 304.85 171.3
M 430.25 97.45
Q 433.3 71.4 412.95 59.5 402.8 79.2 380.2 84 396.3 104.2 429.95 98.25 430.2 97.85 430.25 97.45
M 418.95 70.75
Q 426.3 80.35 425.45 92.5 408.1 95.05 388.95 87.5
L 388.7 87.25
Q 406.8 83.1 414.95 66.25 416.8 67.9 418.95 70.75
M 242 296.5
Q 241.5 296.6 241.45 296.75 241.1783203125 318.1640625 230.35 344.1 234.4259765625 339.454296875 237.3 334.7 272.122265625 328.27421875 258.95 289.5 262.94453125 325.4814453125 237.95 333.65 248.5099609375 315.6349609375 242 296.5
M 216 175.5
Q 205.95 176.15 200.25 184.5 183.80234375 208.61015625 197.9 238.45 198.03203125 236.8818359375 197.4 235.05 193.6564453125 223.8521484375 199.15 198.6 204.6951171875 173.403125 223.8 180.9 242.9548828125 188.441796875 243.75 202.85 244.5921875 217.304296875 240.25 238.6 239.3140625 239.8826171875 240.7 242.3 241.640625 243.9611328125 242.7 245.5 242.8462890625 245.8884765625 243 246.25 243.0634765625 246.1990234375 243.1 246.15 249.912890625 255.85546875 261.25 261.65 266.25 264.2 263.65 268.55 248.5119140625 294.14296875 214.45 298.35 215.3927734375 296.4048828125 215.6 293.7 216.3306640625 283.91328125 211.5 277.85 243.6814453125 277.816796875 229 257.5 229 257.6 228.9 257.65 223.75 261.4 230.5 265.75 220.24609375 270.974609375 210.95 277.2 204.755859375 270.1521484375 190.5 268.5 195.5 264.45 202.15 262.65 202.35 262.6 202.5 262.25 199 256.45 191.05 260.65 182.05 265.4 189.05 271.4 197.45 278.55 206.1 285.15 223.25 298.25 197.4 293 182.15 289.95 172.75 278.6 151.25078125 252.65078125 176.2 249.45 194.9134765625 247.0966796875 197.5 240.2 183.444140625 243.621484375 169.2 249.3 161.85 252.25 161.45 258 159.2033203125 288.869140625 187.2 299.3
L 187.2 299.35
Q 183.75 306.15 184.5 314.5 170.199609375 311.9748046875 164.05 330 157.943359375 348.0216796875 187.65 343.2 188.7359375 345.017578125 190.4 347.05 197.7 356.05 212.45 352.55 223.5 350 230.35 344.1 204.3087890625 351.7328125 189.5 339 199.5 331.65 214.75 331.75 221.4 313.75 214 300.75 213.75 300.85 213.7 301 212.65 314.2 210.5 327 205 329.15 199.1 329.7 182.1978515625 331.2041015625 186.6 341.2 166.3591796875 341.885546875 170.5 325 177.55 319.5 188.25 320 188.35 319.6 188.45 319.25 191.840234375 308.3361328125 188.55 299.8 193.666015625 301.572265625 199.75 302.7 210.46015625 304.6701171875 213.95 299.2 237.41328125 301.6875 261.25 288 261.6095703125 287.79296875 261.95 287.55
L 261.95 287.6
Q 275.1794921875 278.7021484375 267.2 265.45 258.138671875 250.5009765625 244.4 239.4 244.05078125 233.6037109375 245.85 228.75 263.4 181.45 216 175.5 Z"/>
</g>
</defs>

<g transform="matrix( 1, 0, 0, 1, 0,0) ">
<use xlink:href="#Layer0_0_FILL"/>
</g>
</svg>
