
<svg xmlns="http://www.w3.org/2000/svg" version="1.1" xmlns:xlink="http://www.w3.org/1999/xlink" preserveAspectRatio="none" x="0px" y="0px" width="775px" height="380px" viewBox="0 0 775 380">
<defs>
<image id="daydream_jpg" x="0" y="0" width="1300" height="1100" xlink:href="file:///D|/SKOLA%20VECI/Somnium%20svg/daydream.jpg"/>

<g id="Layer0_0_FILL">
<path fill="#66FF00" stroke="none" d="
M 655.15 92.85
Q 655.053125 92.6697265625 654.95 92.5 653.35 93.25 651 93.7 640.2236328125 95.687109375 632.75 101.5 605.15 107.41875 588.1 92.6 580.1 85.65 570.65 84.05 565.7884765625 83.2138671875 547.7 82.1 552.341796875 82.095703125 557.5 82.15 544.6220703125 81.5556640625 533.5 81.35 501.419140625 80.74453125 483.95 83.35 477.7 84.25 474.15 80.05 450.85 52.45 414.95 57.5 399.75 63.35 384.95 71.05 366.85 80.4 347.15 72.5 309.8 57.6 271.55 71.25 253.2 77.8 236.55 69.35 187.6134765625 44.4447265625 126.1 90.95 112.5775390625 98.0755859375 104.7 102.05 96.830859375 106.02890625 93.95 117.75 91.0609375 129.4640625 91.25 140.2 91.4462890625 150.9453125 89.2 152.95 67.85 172.15 70.1 200.1 70.95 210.45 79.25 216.65 90.45 225.05 90.65 237.25 90.9 251.1 88.95 264.6 83.2 304.3 124.05 301 151.15 298.85 166.35 318.15 187.9 345.55 223.4 328.2 272.45 304.3 322.2 308.75 322.6 304.8 318.1 304.4 265.85 300.15 218.55 326.25 200.05 336.45 188.55 323.65 162.2 294.2 121.45 297.6 107.15 298.8 100.3 287.45 86.8 265.25 96.8 240.05 98.5 235.85 96.05 233.5 78.45 216.6 74.2 193.35 73.5 189.35 75.55 187.5 108.3533203125 158.0533203125 101.15 137.15 93.93984375 116.23984375 106.8 110.2 119.669140625 104.1603515625 126.3 95.7 132.969140625 87.2955078125 134.35 86.05 130.425390625 88.684765625 126.25 90.85 181.526953125 54.1623046875 222.9 73.6 243.3 83.15 265.75 75.8 304.95 62.9 341.15 78.45 363.45 88.05 382.35 75.95 428.8 46.3 465.6 80.25 484 97.15 510.95 86 518.3865234375 82.907421875 539.8 82.25 570.9111328125 87.24765625 593.9 104.4 612.0375 117.9142578125 630.55 107.1 632.5248046875 106.0453125 641.5 100.4 650.5169921875 94.809765625 655.45 96.75 684.0095703125 94.8265625 714.95 117.95 754.098828125 147.1609375 732.2 169 710.3013671875 190.8271484375 706.05 208.4 701.7986328125 225.983984375 701.7 246.3 701.650390625 266.6552734375 694.95 269.55 655.15 286.65 613.1 270.75 603.25 267.05 595.7 273.6 576.65 290 559.7 309.35 553.25 316.7 544.1 315.2 502 308.2 461.45 313.75 461.25 315.15 462.45 315.1 482.7 314.4 502.05 319.7 525.7953125 326.19765625 546.8 321.8 567.8640625 317.406640625 584 294.45 600.1859375 271.5431640625 638.1 286.1 676.0546875 300.7021484375 706.75 266.35 712.55 259.9 711.15 251.8 703.65 207.35 732.75 176.55 751.1 157.1 738.85 132.05 720.85 95.35 683.5 89.65 670.0212890625 87.6095703125 655.15 92.85
M 434.7 331.25
Q 435.1 332 435.2 332.75 437.4 348.75 442.95 359.25 443.35 359 443.35 358.7 445.5 333.25 432.95 312.5 431.95 312.55 431.65 313.7 423.8 339.7 428.95 360.25 430.6 359.35 430.65 357.5 430.8 343.15 434.7 331.25
M 349.45 344
Q 349.7 344.25 349.8 344.5 352.2 355.2 356.95 361.25 357.35 361 357.4 360.65 360.55 343.5 348.95 332.5 348.95 332.6 348.9 332.7 337.5 347.25 347.95 360.25 349.2 359.6 348.95 358.35 347.45 351 349.45 344
M 412.15 268.75
Q 408.45 268.15 408.4 264.75 408.2 250.75 413.05 236.8 426.45 198.45 385.95 195.5 382.4 196.5 378.8 198.5 330.6 225.35 363.45 263.25 364 272.7 356.8 276.5 304.65 303.85 326.95 358.25 325.5 335.8 328.35 312.6 329.45 303.7 336.95 300.45 357.9 291.5 366.15 272.65 368.65 267 365.85 261.95 361.45 253.9 358.8 245 351.8 221.2 373.5 206.35 390.1 195 404.45 207.7 412 214.4 410.35 223.7 406.85 243.45 402.2 262.9 400.4 270.45 408.25 271.6 451.9 278.25 455.55 317.9 457.85 343 462.95 363.25 467.35 344.95 463.9 326.7 460.25 307.6 449.75 291.5 437.65 272.9 412.15 268.75 Z"/>
</g>
</defs>

<g transform="matrix( 1, 0, 0, 1, 0,0) ">
<use xlink:href="#Layer0_0_FILL"/>
</g>

<g transform="matrix( 0.453948974609375, 0, 0, 0.47454833984375, -437,396.9) ">
<use xlink:href="#daydream_jpg"/>
</g>
</svg>
