
<svg xmlns="http://www.w3.org/2000/svg" version="1.1" xmlns:xlink="http://www.w3.org/1999/xlink" preserveAspectRatio="none" x="0px" y="0px" width="775px" height="380px" viewBox="0 0 775 380">
<defs>
<g id="Layer0_0_FILL">
<path fill="#FF0000" stroke="none" d="
M 657.2 101.75
Q 657.35 101.35 657.4 101 665.7 68.85 633.95 65.5 631.8 65.65 631.45 68 625.55 104.25 657.2 101.75
M 653.45 96.5
Q 653.35 96.85 653.2 96.85 632.85 96.35 636.45 72 657.05 73.4 653.45 96.5
M 624.3 95.75
Q 635.5 70.1 614.95 62.5 611.45 63.65 610.05 67.45 604.35 83.05 605.7 100.25 618.7 108.6 624.3 95.75
M 610.45 95.75
Q 611.2 81 617.2 68 628.9 80.5 617.45 98 613.65 98.35 610.45 96.25 610.45 96 610.45 95.75
M 665.5 115.75
Q 662.1 125.85 664.2 136.2 678.75 208.2 665.15 280.5 656.15 328.2 685.7 354.75 687.1 353.25 685.8 351.85 671.555859375 336.1052734375 675.25 287.3 678.9818359375 238.483984375 675.35 176.95 671.76796875 115.4658203125 670.85 116.7 669.9939453125 117.94453125 672.25 96.25 677.85 42.25 623.95 37.5 599.6029296875 41.201171875 591.7 57.5 583.839453125 73.8015625 593.55 116.1 603.3115234375 158.3931640625 594.4 184.7 585.545703125 211.00390625 586.55 223.75 591.75 292.5 576.45 353 581.35 353.55 582.95 347.9 597.1021484375 297.048046875 591.9 247.55 586.7486328125 198.1 601.6 184.3 616.493359375 170.5115234375 604.4 132.2
L 592.3 93.95
Q 589.57578125 68.047265625 611.75 49.55 622.85 40.25 636.8 46.65 681.8 67.35 665.5 115.75
M 469.9 98.95
Q 498.35 79.15 464.95 70.5 460.65 72.95 459.1 78.65 456.45 88.6 459.7 99.25 464.35 102.8 469.9 98.95
M 464.35 93.75
Q 462.25 85.55 466.45 78 489.35 85.75 464.45 94.5 464.45 94.1 464.35 93.75
M 432 104.9
Q 434.75 109.55 438.9 105.45 463.65 80.9 435.95 62.5 418.5 81.65 432 104.9
M 435.7 102.25
Q 435.45 102 435.3 101.7 426.65 86.65 435.45 71 456.6 84.8 435.7 102.25
M 492.05 82.35
Q 494 89.05 490.6 94.8 462.25 142.45 487.85 189 493.55 199.4 494.8 210.85 502.65 284 515.95 353.5 518.7548828125 352.7560546875 513.45 322.9 508.134375 293.081640625 504.95 244.85 501.81640625 196.6677734375 490.05 180.85 478.2927734375 165.0443359375 486.6 138.15 494.90078125 111.2498046875 495.75 96.35 498.95 39.85 440.95 42.5 386.65 53.6 411.5 100.15 421.25 118.5 416.1 139.4 403.85 189.05 419.25 242.55 422.2 252.75 421.4 263.25 417.65 314 400.45 359 402.2 359.25 402.55 358.65 412.8 341.7 420.55 322.2 434.1 288.1 424.7 253.5 409.55 197.9 421.05 144.85 427.5 115.15 412.4 88.9 400.35 67.85 422.05 57.5 477.1 31.3 492.05 82.35
M 345.2 361
Q 342.45 338.85 334.75 316.3 330.45 303.6 331 290.65 333.75 229.45 320.35 172.9 317.0447265625 158.954296875 314.75 144.15 312.465234375 129.387109375 318.45 91.15 324.4794921875 52.9171875 275.95 46.5 267.99765625 48.05546875 259.2 50.45 250.4064453125 52.8330078125 241.2 71.15 231.993359375 89.516796875 243.65 111.2 255.3021484375 132.9443359375 253.35 139 236.2 192.5 253 246.65 255.2 253.7 254.55 260.45 249.45 313.95 244 362.5 273.55 286 251.75 205.65 248.75 194.5 253.1 184.65 267.95 151.25 252.15 120.7 225.5 68.95 275.6 51.4 286.95 47.45 294.75 54.45 320.9 77.75 308.6 113.55 305.15 123.45 308.25 133.65 326.45 193.85 322.6 261.2 319.35 318.4 345.2 361
M 288.95 66.5
Q 287.7 66.65 287.1 68.25 276.35 97.05 300.95 101.5 301.1 101.1 301.25 100.75 309.95 77.9 288.95 66.5
M 293.3 96.3
Q 286.45 86.35 291.45 75.5 304.2 85.75 294.2 97 293.6 96.75 293.3 96.3
M 269.5 92.55
Q 288.5 75.35 266.95 66.5 247.1 76.1 257.4 91.95 262.15 99.2 269.5 92.55
M 257.45 83
Q 257.7 82.6 258 82.25 262.15 77.25 267.45 73 270.85 72.4 273.45 74.25 273.5 76.1 273.45 78 273.35 83.05 271.7 87.75 260.8 94.65 257.45 83
M 164.9 135.3
Q 175.53359375 118.2265625 174.55 81.75 173.5689453125 45.2814453125 116 52.5 90.55 73.55 106.9 107.55 121.2 137.15 101.8 162.25 95 171.05 92.2 181 87.15 198.65 90.1 216.05 103.3 293.45 76.5 361 86.5 353.75 90.95 338.9 100.85 305.6 101.95 268.75 102.8 239.75 95.25 212.5 90.1 193.75 100.2 178.75 106.4 169.6 110.2 158.9 122.3009765625 125.2505859375 111.4 104.3 100.5484375 83.3466796875 111.5 64.5 122.446484375 45.706640625 147.7 58.95 172.9595703125 72.19140625 170.05 93.05 167.143359375 113.954296875 158.35 131.45 149.551171875 148.99921875 153.95 162.6 162.6 189.15 164.35 217.2 165.6525390625 238.1669921875 162.4 258.5 161.4126953125 264.5857421875 160.65 269.5 160.859765625 267.6787109375 161.1 265.85 161.0904296875 266.04921875 161.05 266.25 149.9 321.3 174.75 360.75 160.78515625 321.8703125 159.8 290 161.4541015625 286.5791015625 164.75 275.55 176.452734375 236.52109375 165.35 194.45 154.256640625 152.36796875 164.9 135.3
M 146 70
Q 145.5 70.1 145.35 70.4 131.35 100.4 159.25 103.75 159.6 103.35 159.75 102.9 168.5 77.35 146 70
M 147.5 75.5
Q 147.6 75.35 147.65 75.4 160.95 83.8 155.25 99.5 154.75 99.5 154.35 99.3 141.85 92.6 147.5 75.5
M 116.75 92.25
Q 118.1 93.7 119.6 94.65 124.4 97.8 129.05 93.45 148.05 75.6 128 64.5 126.25 64.75 124.8 65.95 112.85 75.9 116.75 92.25
M 130.2 70.1
Q 138.45 88.85 121.5 88 121.5 87.6 121.45 87.25 120.55 76.75 129.25 70 129.85 69.3 130.2 70.1 Z"/>
</g>
</defs>

<g transform="matrix( 1, 0, 0, 1, 0,0) ">
<use xlink:href="#Layer0_0_FILL"/>
</g>
</svg>
