
<svg xmlns="http://www.w3.org/2000/svg" version="1.1" xmlns:xlink="http://www.w3.org/1999/xlink" preserveAspectRatio="none" x="0px" y="0px" width="775px" height="380px" viewBox="0 0 775 380">
<defs>
<image id="maxresdefault_jpg" x="0" y="0" width="1920" height="1080" xlink:href="file:///D|/SKOLA%20VECI/Somnium%20svg/maxresdefault.jpg"/>

<g id="Layer0_0_FILL">
<path fill="#00FFFF" stroke="none" d="
M 105 257.5
Q 104.5 257.6 104.45 257.8 98.35 303.9 102 344.25 102.5 343.85 102.55 343.4 110.1 299.6 105 257.5
M 514.95 275.5
Q 514.45 275.6 514.45 275.8 508.45 316.7 513.95 352.25 514.35 352 514.4 351.7 520.05 312.5 514.95 275.5
M 452.95 27.5
Q 452.95 27.6 452.95 27.75 446.95 58.1 454.95 88.5 455.6 88.25 455.6 87.95 458.6 56.85 452.95 27.5
M 364.95 51.5
Q 364.45 51.6 364.45 51.8 358.65 98.85 367.95 140.25 368.35 140 368.35 139.75 369.8 94.5 364.95 51.5
M 62 126.5
Q 58.15 154.5 55.65 185.6 52.8 221.55 69.75 241.75 70.1 241 70 240.3 59.8 184 62 126.5
M 168 208.5
Q 167.25 208.75 167.2 209.05 162.85 246.6 168 281.5 168.6 281.25 168.65 280.9 173.3 243.7 168 208.5
M 653.95 174.5
Q 653.45 174.6 653.45 174.7 656.6 240.15 663.95 303.25 664.45 302.85 664.45 302.45 667.55 235.7 653.95 174.5
M 674.95 63.5
Q 674.45 63.6 674.45 63.75 673.95 105.15 679.95 143.25 680.3 143 680.35 142.7 685.2 100.85 674.95 63.5
M 217 44.5
Q 216.5 44.6 216.45 44.8 209.65 87.5 221 124.5 221.5 124.35 221.45 124.25 220.7 84.5 217 44.5
M 116 56.5
Q 115.5 56.6 115.45 56.8 109.75 105 117 148.25 117.35 148 117.4 147.7 120.9 100.75 116 56.5
M 466.85 183.85
Q 469.9 180.65 473.35 181.35 502.9 187.25 525.15 214.55 529.45 219.8 535.9 220.8 557.75 224.1 577.9 220.25 578.15 220.6 578.2 221 578.4 224 578.5 227 578.55 228.15 578.15 229.25 560.65 246.9 539.65 246 510.55 223.85 476.15 210.25 470.9 232.2 465.3 254.45 462 267.65 457.85 280.5 451.15 301.2 425.85 297.75 379.9 291.55 340.55 311.25 308.55 327.3 291.8 301.9 285.95 293.1 288.3 282.65 295.60546875 250.50078125 275.35 219.15 257.57578125 191.62734375 251.65 183.75 248.2078125 156.3302734375 254.45 150.75 267.705078125 167.406640625 269.2 180.25 270.69609375 193.0947265625 285.25 207.7 299.85078125 222.3009765625 303.05 258.05 304.95 279.15 314.4 290 316.35 251.2 298.5 219.95 301.25 189.7 294.15 160.3 286 126.35 301.9 99.5 296.95 101.35 294.85 106.8 284.7 133.05 288.45 163.6 292.3 194.65 297.9 218.9 290.4515625 206.1533203125 282.3 197.55 274.144921875 188.9400390625 272.65 173.45 271.206640625 158.01328125 250.95 145.5 249.65 145.655859375 246.85 148.95 244.099609375 152.2318359375 244.45 169.05 244.8279296875 184.8697265625 250.35 185.45 260.8759765625 206.683203125 268.9 220.75 276.96796875 234.8126953125 277.5 239.6 278.0439453125 244.445703125 279.05 247.25 270.3 241.5 254.95 244.5 243.35 246 237.4 255.15 232.7 262.35 233.75 269.5 239.35 308.05 283.45 297.25 267.3 296.25 250.9 289.65 233.05 282.5 239.45 268.65 252.5 240.55 281.25 254.4 284.8 268.25 284.3 283.85 282.65 330.85 330.85 318.3 341.75 315.45 351.9 313.25 397.2 303.45 443.9 301.55 451.05 301.25 454.05 295.9 474.2 259.65 479.4 216.25 501.2 233.7 529.4 240 541.45 259 567.1 243.05 573.5 239.1 577.05 233.15 592.25 207.8 560.5 216.3 555.7 217.55 552.55 217 522.15 211.6 499.45 184.65 482.2 164.15 462.3 181.2 439 201.15 437.9 226.5 449.2 202.55 466.85 183.85
M 301.9 99.5
Q 313.208203125 112.601953125 310.7 124.1 308.18203125 135.65234375 308.55 153.45 308.969140625 171.2921875 315.4 194.65 321.878515625 218.0626953125 316.9 248.25 326.4998046875 205.54453125 316.3 178.95 306.1 152.3662109375 315.55 131.35 325.0498046875 110.3783203125 301.9 99.5
M 576.1 33.3
Q 572.05 32.75 567.9 32.5 543.7501953125 105.7275390625 491.05 123 471.55 129.4 445.9 155.8 420.25 182.2 409 223.1 406.4 226.3 404.05 229.95 397.2 240.35 384.25 239.15 343.4 235.4 314.4 251.5 334.337109375 243.3404296875 372.65 246.45 410.962890625 249.5595703125 410.75 221 424.35 201.8 433.75 179.8 445.4 152.5 473 139.55 543.7 106.25 572.4 38 576.75 46.9 572.65 69.15 569.85 84.35 569.8 87.05 553.45 96.25 539.1 112.35 524.75 128.45 510.35 139.95 490.3 156 478.4 173 504.5 160 522.2 135.55 537.65 114.1 559.85 100.8 565.5 97.45 568.05 92.15 569.2 89.75 570.4 86.9 580.1 62.8 576.9 33.75 576.55 33.35 576.1 33.3 Z"/>
</g>
</defs>

<g transform="matrix( 1, 0, 0, 1, 0,0) ">
<use xlink:href="#Layer0_0_FILL"/>
</g>

<g transform="matrix( 0.3708953857421875, 0, 0, 0.3907470703125, -270.65,410.4) ">
<use xlink:href="#maxresdefault_jpg"/>
</g>
</svg>
