
<svg xmlns="http://www.w3.org/2000/svg" version="1.1" xmlns:xlink="http://www.w3.org/1999/xlink" preserveAspectRatio="none" x="0px" y="0px" width="775px" height="380px" viewBox="0 0 775 380">
<defs>
<image id="eagle_jpg" x="0" y="0" width="882" height="460" xlink:href="file:///D|/SKOLA%20VECI/Somnium%20svg/eagle.jpg"/>

<g id="Layer0_0_FILL">
<path fill="#00FFFF" stroke="none" d="
M 754.95 294.5
Q 752.05 295.3 749.05 296.95 703.2 322.6 663.7 351.25 701.9 332.6 741.8 310.35 759.25 300.6 754.95 294.5
M 137.95 26.8
Q 136 24.65 133 25.5 130 25.95 127.15 26.85 76.2 42.45 31.5 66.5 32 67.25 32.25 67.15 87.1 50.35 138.5 27.5 138.25 27.1 137.95 26.8
M 58.5 364.5
Q 102.75 351.35 148.45 330.45 168.55 321.2 164 313.5 161.35 314.7 158.15 316.1 106.25 338.7 58.5 364.5
M 104.5 281.5
Q 104.95 283.3 106.75 282.75 163.1 265.75 212.5 238.5 212.25 238.1 211.95 237.8 210 235.65 207 236.5 204.7 237.1 202.2 238.2 151.75 260.6 104.5 281.5
M 45.5 184
Q 45.35 185.15 45.65 185.15 90.9 180.75 130.5 159.5 130.25 159.1 129.95 158.8 128 156.65 125 157.5 125 157.6 124.95 157.65 84.8 171.6 45.5 184
M 674.9 169.8
Q 673 167.65 669.95 168.5 616.15 199.55 556.45 218.75
L 556.45 219.1
Q 620.65 209.2 675.45 170.5 675.2 170.1 674.9 169.8
M 698.45 51.5
Q 698.2 51.1 697.9 50.8 696 48.65 692.95 49.5 692.45 49.6 692 49.85 637.05 74.45 584.45 93.5 584.9 95.35 586.8 94.85 646.6 80.45 698.45 51.5
M 495.9 34.8
Q 494 32.65 490.95 33.5 488.45 34.5 485.4 35.85 435.9 57.2 394.45 84.5 394.95 86.35 396.55 85.6 447.8 61.5 496.45 35.5 496.2 35.1 495.9 34.8
M 388.55 169.7
Q 382.45 173.55 379.15 171.55 314.9 132.6 257.75 81.55 238 63.85 227.05 38.8 217.1 15.9 198 9.5 184.65 16.3 179.45 29.7 166.65 62.75 177.85 95.95 211.55 195.75 317.35 222.4 320.95 223.3 321.5 224.9 326.65 241.6 300.75 245.05 252.85 251.4 273.6 290.45 301.35 342.75 368.25 330.1 373.1 329.2 374.75 326.35 376.0171875 324.1826171875 377.05 322 358.7349609375 328.4310546875 337.1 326.6 275.15 321.3 270.7 261.75 279.09296875 253.85546875 300.15 248.15 321.25234375 242.448046875 326.25 236.85 337.3 224.3 322.6 220.4 245.55 200.05 201.1 137.25 156.4 74.15 199.25 15 216 43.55 237.2 66.55 266.5 98.35 299.45 128.3 339 164.25 386.7 180.75 408.5 153.1 441.45 174.75 419.2619140625 182.11171875 418.5 194.1 417.7458984375 206.1458984375 421.45 209.05 450 231.85 479.85 251.2 532.6244140625 285.2998046875 580.55 298.75 620.2296875 310.008203125 619.9 313.65 617.55 340.2 589.8 345.5 498.6 362.9 425.1 308.45 415.4 301.25 407.1 293.25 388.95 275.75 369.7 266.75 369.29765625 268.9494140625 374.4 285.15 379.5064453125 301.401171875 377.1 322 387.5626953125 296.92578125 375.45 273 446.75 350.45 554.85 359.9 612.1 364.9 627.35 314.9 628.85 310.1 626.1 309.05 622.306640625 307.63359375 583.55 292.2 566.175 284.958203125 548.6 277 490.95 250.95 440.05 216.3 402.4 190.7 445.95 181.5 446.75 178.95 445.45 176.85 426.3 145.75 388.55 169.7 Z"/>
</g>
</defs>

<g transform="matrix( 1, 0, 0, 1, 0,0) ">
<use xlink:href="#Layer0_0_FILL"/>
</g>

<g transform="matrix( 0.684814453125, 0, 0, 0.6999969482421875, -341.95,393.85) ">
<use xlink:href="#eagle_jpg"/>
</g>
</svg>
