
<svg xmlns="http://www.w3.org/2000/svg" version="1.1" xmlns:xlink="http://www.w3.org/1999/xlink" preserveAspectRatio="none" x="0px" y="0px" width="500px" height="500px" viewBox="0 0 500 500">
<defs>
<image id="world_of_lucid_dreaming__1__png" x="0" y="0" width="200" height="200" xlink:href="file:///D|/SKOLA%20VECI/Somnium%20svg/world-of-lucid-dreaming%20(1).png"/>

<g id="Layer0_0_FILL">
<path fill="#FFFFFF" stroke="none" d="
M 483.85 378.65
Q 469.3 383.35 463.05 386.2 452.5 391 441.5 394.45 425.65 399.4 409.15 400.65 364.8 405 321.8 393.7 290.95 385.7 263.35 369.4 238.55 354.65 217.35 335 194.2 313.7 175.3 288.5 168.5 279.45 165.2 269.25 156.6 242.65 153.2 214.6 149.8 186.9 149.5 158.9 149.25 138 154.1 117.7 156.1 109.3 159.55 101.45 179.35 56.65 197.55 11.25 192.25 18.05 187.3 25.2 177.4 39.35 169.5 54.6 160.2 72.7 153.6 92 146.3 113.4 142.3 135.7 138.55 156.65 138.65 177.95 139 239.25 170.35 291.95
L 166.55 282.9
Q 170.55 290.15 174.95 297.25 189.75 321.35 208.55 342.1 219.4 354.05 232.1 364.55 249.1 378.6 268.7 388.3 288.95 398.35 310.6 404.9 331.95 411.4 354.15 413.6 414.05 419.05 467.7 391.7 456.9 402.6 446.9 414.15 430.2 433.3 409.55 447.8 389.3 462.05 366.2 471.05 345.05 479.3 323 483 301.5 486.65 279.55 487.15 253.2 487.7 227.3 483.3 207.3 480 188.05 473.15 162.9 464.3 140.7 449.7 121.8 437.3 105.6 421.5 88.35 404.75 74.35 385.3 65.35 372.85 57.2 360.05 51.6 351.25 48 341.3 39.45 317.9 35.25 293.15 31.1 268.7 32.25 244 33.3 221.2 38.5 198.7 42.95 179.3 50 160.55 58.6 137.45 71.5 116.45 84.05 95.95 100.35 78.3 116.9 60.5 136.65 46.35 160.55 29.1 187.4 16.7 194.7 13.3 196.6 6.25
L 189.3 6.25
Q 180.15 10.3 171.35 14.85 151.7 25.15 133.9 38.2 116.6 50.95 101.65 66.35 88.85 79.55 78.1 94.35 65.25 111.95 55.3 131.55 42.9 155.9 35 182.25 27.45 207.45 25.65 233.7 20.75 305.55 56.9 367.9 56.95 367.7 57 367.55 57.6 369.4 58.45 371.05 69.5 393.1 85.25 412.35 99.95 430.3 118.3 444.45 131.4 454.6 145.9 462.35 173.25 477.15 203.7 484.3 233 491.2 263.2 492.55 279.95 493.45 296.75 492.5 312.75 491.5 328.45 488.6 341.55 486.3 354.2 482.35 368.65 477.8 382.4 471.55 396.15 465.2 408.75 457.05 421.65 448.85 433.2 438.85 463.35 412.7 484.3 378.9
L 483.85 378.65
M 381.55 101.4
Q 393.45 108.7 403.1 118.85 414 130.3 422.5 143.6 433.65 161.05 442.05 179.75 451.85 201.6 457.6 224.8 462.2 243.2 461.1 262.1 459.8 284.55 449.65 307 439.45 329.45 405.05 386 420.85 380.4 433.05 359.7 445.25 338.95 453.1 317 460.55 296.3 463.9 274.45 467.55 250.85 464.6 227.1 461.7 203.35 452.75 181.25 443.3 157.85 428.85 137.2 415.9 118.7 399.25 103.55 381.3 87.2 359.45 76.55 337.1 65.7 312.8 61.15 291.25 57.35 269.4 56.45 243.9 55.6 219.35 62.8 194.5 70.1 175.15 87.1
L 175 85
Q 174.2 89.5 173.45 94 168.35 124.8 171.5 155.85 174.2 182.35 183 207.5 192.15 233.75 205.85 257.85 218.9 280.75 236.25 300.7 250.2 316.7 266.7 329.75 286.55 345.55 309.45 356.65 354.95 378.5 405.05 386 388.55 375.85 371.35 369.8 354.4 363.95 337.15 358.35 321.25 353.2 306.5 345.2 272.95 326.9 246.45 298.75 250.75 300.7 255.4 302.05 268 305.95 281.3 305.1 295.25 304.4 308.1 298.85 319 294.25 324.7 283.95 329.65 274.9 331.05 264.5 333.7 244.95 328.1 226.1 323.4 210.25 309.85 200.8 294.35 190 275.55 187.8 270.65 187.25 265.8 186.5 255.8 184.65 247.05 189.15 232.7 196.7 223.2 209.6 209.5 228.2 209.6 251 206.1 241.25 202.8 231.45 180.95 166.4 176.5 97.95 176.15 92.8 188.55 84.55 190.25 83.85 191.9 83.05 212.25 73.55 233.7 67.35 251.45 62.4 270.1 63.05 285.85 63.55 301.3 66.95 321.65 71.65 340.8 80 361.9 89.3 381.55 101.4
M 325.9 234.95
Q 328.3 243.3 328.25 252.15 328.2 270.4 317.45 284.85 313.6 290.05 308 292.85 285.55 304.25 260.65 298.7 249.4 296.3 240.7 288.5 221.55 271.55 218.45 246.15 217.45 237.75 220.55 229.95 229.45 207.45 250.35 194.4 267.6 189.75 285.05 193.7 290.7 194.95 295.9 197.3 301.4 199.95 306.1 204 320.65 216.7 325.9 234.95
M 278.8 207.55
L 278 207.85
Q 288.1 237.85 311.6 248.15 311.75 247.85 311.75 247.55 310.8 215 278.8 207.55 Z"/>
</g>
</defs>

<g transform="matrix( 1, 0, 0, 1, 0,0) ">
<use xlink:href="#Layer0_0_FILL"/>
</g>

<g transform="matrix( 2.5013275146484375, 0, 0, 2.5311126708984375, 528.85,-16.5) ">
<use xlink:href="#world_of_lucid_dreaming__1__png"/>
</g>
</svg>
