
<svg xmlns="http://www.w3.org/2000/svg" version="1.1" xmlns:xlink="http://www.w3.org/1999/xlink" preserveAspectRatio="none" x="0px" y="0px" width="775px" height="380px" viewBox="0 0 775 380">
<defs>
<g id="Layer0_0_FILL">
<path fill="#00FFFF" stroke="none" d="
M 461.35 317.2
Q 397.8119140625 297.96171875 350.8 309.25 303.834765625 320.5982421875 294 326.45 284.15546875 332.348828125 273.65 339.95 273.45625 340.0953125 254.7 355.5 274.6201171875 340.0423828125 310.15 326.5 346.8671875 312.576953125 415.15 316.7 483.419140625 320.820703125 519.45 348.25 524.950390625 336.4810546875 461.35 317.2
M 756.45 105.75
Q 756.45 105.35 756.25 105.2 733.95 87.3 702.95 91.5 659.598046875 90.9447265625 612.3 117.15 565.0052734375 143.415234375 512.9 126.6 460.7927734375 109.7794921875 478 115.9 481.3 119.15 484.75 120.95 553.9 157.3 621.55 120.45 645.7 107.25 672.55 102.6 720.55 94.3 756.45 105.75
M 154.75 154.25
Q 154.7353515625 153.9525390625 154.85 153.65 154.80390625 153.6955078125 154.75 153.75 154.6 153.85 154.75 154.25
M 689.45 163.25
L 689.2 162.5
Q 627.85 188.501953125 569.15 184.75 510.5 180.994140625 434.65 148.65 358.8 116.3578125 237 123.5 222.6447265625 120.432421875 195.45 130.25 170.5931640625 139.259375 157.15 151.4 168.7306640625 144.2953125 235.25 131.7 316.1515625 116.4443359375 400 145.45 483.902734375 174.506640625 546.7 191.25 609.4984375 207.99765625 689.45 163.25
M 567.7 38.75
Q 604.373046875 47.4423828125 621.45 62.25 622.0013671875 60.4984375 596.65 42.8 571.3 25.153125 527.35 27.95 483.4466796875 30.79375 473.1 36 462.7546875 41.2578125 446.7 53.25 470.9556640625 40.5486328125 501 35.3 531.0326171875 30.10546875 567.7 38.75
M 205 34.6
Q 201.915234375 35.081640625 193.55 35.2 178.0609375 35.490625 129 28.5 100.25 28.15 73.45 37.95 65.85 40.75 58.9 44.6 45.45 52.1 40.5 70 78.55 32.55 129.25 33.75 150.6 34.25 170.8 39.25 191.1078125 44.326953125 205 34.6
M 362.7 198.65
Q 382.95 202.7 402.3 209.4 479.7404296875 236.0865234375 551.75 222.9 511.7943359375 229.1541015625 473.3 216.7 359.9 179.95 239 188.5 193.8 192.65 152.45 210.6 122.5 223.65 95.45 242.25 71.95 258.4 35.75 302.25 55.85 278.85 56.35 278.55 86.85 257.65 119.2 238.2 229.5 171.85 362.7 198.65
M 239.3 244.6
Q 236.6 240.5 239.5 245.25 239.5 244.85 239.3 244.6
M 95 330.4
Q 93.790234375 332.889453125 92.75 335.4 93.8712890625 334.2056640625 95 333 102.9890625 324.6720703125 111.35 317 166.8341796875 266.230859375 239.5 245.25 182.2 257.5 138.45 285.3 115.9591796875 299.58515625 103.15 317 98.41484375 323.494921875 95 330.4
M 654.45 258.75
Q 689.95 265.4 724.7 248.75 742 240.45 739.95 231.5 702.15 258.55 654.45 258.75
M 461.7 82.75
Q 431.1 85.75 401.55 79.55 311.9 60.75 218 64.5 193.75 67.1 170.05 72.85 137.55 80.8 107.95 95.95 89.7 105.3 73 117.55 54.05 131.5 46.5 149 74.55 120.8 111.7 102.2 187.2 64.4 274.45 70.4 306.1 72.6 336.25 80.35 413.2 100.15 488.45 83.5 476.25 81.35 461.7 82.75
M 760.45 312.5
Q 759.65 310.9 758.1 311.2 741.85 314.3 725.35 314.95 654.55 317.7 590.5 290.05 480.95 242.85 358.95 249.5 302.7 255.85 252.75 280.25 243.65 284.7 237.5 290.5 272.95 277.15 314.8 268.35 465 236.75 601.15 299.75 679.1 335.85 760.45 312.5 Z"/>
</g>
</defs>

<g transform="matrix( 1, 0, 0, 1, 0,0) ">
<use xlink:href="#Layer0_0_FILL"/>
</g>
</svg>
