
<svg xmlns="http://www.w3.org/2000/svg" version="1.1" xmlns:xlink="http://www.w3.org/1999/xlink" preserveAspectRatio="none" x="0px" y="0px" width="775px" height="380px" viewBox="0 0 775 380">
<defs>
<g id="Layer0_0_FILL">
<path fill="#66FF00" stroke="none" d="
M 572.6 195.85
Q 570.1439453125 194.862109375 544.35 179.1 603.8619140625 222.6091796875 581.05 267.9 580.4673828125 267.0923828125 579.05 267.25 513.85 273.75 470.1 231.55 463.2 224.85 453.4 222.65 434.45 218.45 414.45 214.85 395.8 211.5 410.35 191.2 414.95 184.75 416.15 177.9 425 127.75 374.95 128.5 329.85 141.8 347 188.7 350.95 199.5 355.95 209.3 358.15625 213.55625 331.25 222.85 304.38125 232.18125 282.25 251.2 260.18125 270.23125 236.85 273.15 214.4544921875 275.93828125 182.25 281.95 181.09296875 277.941796875 177.95 274.25 153.85 246.05 187.9 227.95 210.1 216.15 211.75 192.75 211.907421875 190.5212890625 212.2 188.35 204.1533203125 205.5548828125 186.45 216.2 168.75 226.85 164.5 245.95 157.7580078125 276.1640625 182.2 281.95 180.851953125 282.24375 179.5 282.5 197.894921875 285.5462890625 222.05 285 246.262109375 284.4626953125 271.95 265.5 297.6962890625 246.535546875 319.15 235.6 340.597265625 224.709765625 352.4 222.1 364.2017578125 219.497265625 363.4 208 362.8 199.7 358.2 192.45 331.7 150.9 375 134.6 385.5 130.65 394.45 136.75 427.35 159.2 404.35 193.4 388.3 217.3 414.3 221.05 432.7 223.75 448.65 230.55 462.9 236.65 476.2 246.9 521.2974609375 281.4037109375 580.25 269.45 579.8607421875 270.2400390625 579.45 271 580.390625 270.1505859375 581.25 269.25 581.36796875 269.2671875 581.45 269.25 581.4458984375 269.1896484375 581.45 269.1 607.53828125 243.648828125 586.9 208.4 581.65 199.45 572.6 195.85
M 555.95 62.7
Q 557.1 77.35 559.3 91.55 560.25 97.7 556.15 101.5 522.862890625 132.0748046875 532.65 168.25 515.2125 148.734375 511.9 120.3 509.15 96.5 484.95 85.3 458.35 72.95 460.95 43.5 449.1 82.65 491.35 99.25 505.7 104.9 506 119.25 506.8783203125 160.6779296875 544.35 179.1 538.019921875 174.180859375 532.9 168.5 531.0796875 141.4626953125 551.3 124.3 561.45 115.7 561.2 103 560.5 67.25 565.95 36.5 554.6 46.45 555.95 62.7
M 99.6 146.5
Q 99.8 122.05 90 99.5 85.8 105.7 90.6 114.25 99.5 130.15 93.65 145.15 80.45 179 112.35 192.6 129.3 199.85 121.3 214.85 94.5 265.4 142.25 280.75 139.25 274.8 130.65 271.05 119.65 266.25 120.95 255.4 123.9 230.8 128.55 206.6 129.65 200.9 124.9 198.85 99.95 188.15 99.6 164.5 99.5 155.65 99.6 146.5
M 56.65 97.8
Q 53.75 82.75 59 72.5 34.05 95.9 61.3 124.65 66.2 129.85 63.55 135.6 40.45 185.4 81.85 219.2 87.5 223.85 85.4 229.3 72.85 262.05 84.95 292.1 88.4 300.7 97.3 300.3 141.4 298.2 184.25 299.75 158.5 282.8 122.8 296 92.3 307.25 87.35 276.5 84.2 257.05 91.4 237.95 93.5 232.35 90.4 228.45 72.8 206.4 63.55 181.15 61.1 174.45 64.45 168.35 75.85 147.35 65.9 126.2 59.4 112.5 56.65 97.8
M 195.8 84.65
Q 195.1 73.25 201.3 65.35 212.5 51.05 215 40.5 190.15 52.35 194.05 77.25 196.15 90.9 187.2 100.35 156.9 132.35 185.35 167 190.05 172.75 185.2 177.8 163.05 200.8 161 225.5 167.95 213.15 177.45 202.4 184.5 194.4 188.15 184.8 196.7 162.4 181.1 143.2 174.3 134.85 181 127.15 197.3 108.3 195.8 84.65
M 150.75 190.9
Q 151.05 183.35 145.25 178.3 141.760546875 175.258984375 138.85 172.05 146.4234375 185.4802734375 145 201.7 143.15 223.35 142.9 245.5 142.45 289.85 183.5 289.25 173.45 287.3 164.9 281.65 149.3 271.3 149.35 254 149.45 222.9 150.75 190.9
M 115 43.5
L 114.3 43.65
Q 137.6 56.4 135.2 86.95 133.85 103.6 124.75 117.6 109.85 140.45 128.8 159.15 129.92109375 160.252734375 130.95 161.35 121.1705078125 144.2455078125 126.5 123.75 129 114.1 133.6 104.5 154.05 61.55 115 43.5
M 264.9 74.7
Q 257.4 78.9 257.35 86.5 257.15 126.6 225.65 149.05 219.05 153.7 218.8 159.9 218.5361328125 165.616796875 217.6 170.9 223.254296875 160.113671875 234.15 152.85 259.25 136.15 259.6 106 260.05 68.15 303.45 71 303.45 70.6 303.35 70.3 299.55 62.2 286.95 67.5 275.25 68.9 264.9 74.7
M 669.2 244.55
Q 665.45 228.7 678.4 222.1 698.05 212.1 697.95 204.5 661 208.9 664.85 244.1 666.35 257.4 660.85 268.75 653.15 284.85 633.45 291.5 680.2 291.1 669.2 244.55
M 750.95 76.5
Q 744.4 83.9 737.15 91.2 713.85 114.5 718.4 145.4 721.85 168.5 731.7 190.3 741.9 213 720.6 224.15 682.6 244 686.4 284.8 688.55 308.15 673.15 321.65 665.05 328.8 656.65 321.25 629.55 296.8 597.45 298.75 609.25 300 618.9 305.9 634.8 315.65 649.95 325.75 669.1 338.55 679.95 322.3 693.55 301.95 692.15 274.35 691.1 254.6 709.85 245.3 740.35 230.2 738.45 199.4 736.85 173.2 723.7 149.85 716.8 137.55 725.05 127 744.8 101.7 750.95 76.5
M 592.45 286.75
Q 598.7 292.45 607.8 287.85 645.8158203125 268.5708984375 646 229.1 635.7287109375 268.7298828125 592.45 286.75
M 661.95 29.5
L 661.45 29.6
Q 674.6 48.5 677.2 74.75 678.05 83.15 673.25 88.6 645.7 120 665.65 153.95 679.7 177.8 652.6 196.8 649.2 199.15 649.2 202.25 649.205078125 208.5130859375 648.6 214.35 651.003125 209.0623046875 655.6 205.2 692 174.8 665.05 137 659.45 129.15 665.1 122.1 703.8 73.7 661.95 29.5
M 594.95 76.5
L 594.3 76.65
Q 608.95 83.4 624.2 99.75 634.8 111.05 629.5 126.5 623.4 144.25 617.75 162.25 609.1 190.05 621.05 216.3 625.15 225.3 620.9 234.65 608.1 262.85 582.7 281.25 603.75 273.55 621.15 253.25 633.1 239.3 626.05 220.5 614.35 189.3 622.8 159.6 625.8 149.05 629.6 139.2 648.75 89.95 594.95 76.5
M 336.7 329.55
Q 335.65 316.85 335.95 305 336.6 274.4 321.95 256.5 315.05 264.7 307.65 274.05 299.25 284.65 286.85 289.6 242.2 307.4 192.5 305.75 216.55 311.25 246.1 310 299 307.75 323.95 262.5 325.95 263.8 328.4 288.5 330.85 313.2 335.95 354.25 337.75 342.55 336.7 329.55
M 433.95 263.5
Q 431.55 263.7 431.5 266.25 431.45 276 431.8 285.7 432.15 295.4 430.3 304.45 424.55 332.3 429.95 354.25 432.25 352 432.05 348.45 431.65 341.25 432.15 334.2 432.65 326.8 433.6 319.75 436.95 295.1 436.45 269.75 507.9 313.65 592.45 303.25 563.65 301.65 531.15 298.4 520.15 297.25 510.15 293.4 472.15 278.6 433.95 263.5 Z"/>
</g>
</defs>

<g transform="matrix( 1, 0, 0, 1, 0,0) ">
<use xlink:href="#Layer0_0_FILL"/>
</g>
</svg>
