
<svg xmlns="http://www.w3.org/2000/svg" version="1.1" xmlns:xlink="http://www.w3.org/1999/xlink" preserveAspectRatio="none" x="0px" y="0px" width="775px" height="380px" viewBox="0 0 775 380">
<defs>
<g id="Layer0_0_FILL">
<path fill="#FF0000" stroke="none" d="
M 725.2 90
Q 725.3 89.6 725.25 89.3 714.1 45.5 666.95 46.5 647.15 48.4 633.65 62.65 609.1 88.65 590.7 119.55 565.25 162.35 517.35 142.15 463.05 119.3 428.7 157.25 434.3 159.35 439.8 154.45 463 133.7 493.15 145.55 575.95 178.1 611.45 100 621.25 78.4 641.8 65.55 692.75 33.7 717.45 83 701.35 79.1 687.7 86.15 670.9 94.8 664.9 111.85 652.85 145.8 635.95 178.3 611.55 225.1 557.05 213.15 502.6 201.2 463.5 233.05 459 236.7 456.8 241.15 448.5 257.7 463.5 278.9 471.701171875 290.4505859375 506.95 301.25 542.196484375 312.048046875 578.4 293 614.603515625 273.9517578125 656.55 286.75 698.498828125 299.59921875 725.45 248.5 727.05 268.9 720.75 286.9 698.5 349.95 627.55 331.95 582.2 320.45 539.1 336.8 472.75 361.95 438.25 308.9 417.85 277.55 386.25 258.6 373.9 251.2 360.15 258.25 324.05 276.7 291.4 302.15 276.15 314.05 259.4 306.4 208.3908203125 283.0521484375 169.8 313 169.9001953125 311.0677734375 169.6 308.95 166.9501953125 289.701953125 182 269.3 197.0986328125 248.8953125 216.25 259 235.452734375 269.100390625 263.45 270.55 291.49609375 272.0578125 313.95 221.5 309.05 218.25 304.9 214.3 289.7 199.8 269.3 195.95 183.1 179.6 140.4 252.75 132 267.15 120.05 278.35 73.75 321.7 39.25 271 75.5359375 269.1404296875 93.65 245.15 104.466796875 230.9138671875 107.4 227 105.0919921875 229.5701171875 124.05 194.9 135.5951171875 175.5259765625 147.7 161.9 153.6 155.2 162.5 153.75 223.45 143.95 275.45 166.5 255.7 139.2 227 120.65 168.05 82.6 103.6 112.1 91.75 117.55 79.7 112.45 37.3 94.55 35.5 47.75 39.65 51.1 45.5 54.6 95.4 84.75 157.5 66.9 205.85 53 238.35 84.7 274.32109375 119.7830078125 319.25 124.15 328.7150390625 140.389453125 339.75 156.05 364.15 190.65 404.25 181.25 410.9 179.65 415.15 174.2 429.75 155.3 434.7 131.65 447.15 72.1 400.95 42.5 365.7 39.7 333.65 53.7 319.9 59.75 311.8 71.8 300.3 88.95 309.95 107.3 314.3111328125 115.639453125 319.05 123.85 284.33671875 113.3470703125 255.95 88 244.1 77.45 229.5 71.05 179.95 49.4 123.6 62.95 64.3 77.25 33 33.5 26.9 55.4 35.2 78.95 50.95 123.4 98.75 119.15 111.95 117.95 124.9 114.35 211.35 90.45 260.95 157.5 241.35 149.6 220.75 145.15 141.55 127.95 120.05 198.1 119.685546875 199.2888671875 118.1 203.65 75.7677734375 264.76015625 29.5 264 35.85 282.1 53.15 292.05 105.3 321.95 133.7 272.15 155.15 234.5 191.35 212.55 255.8 173.45 308.2 224.5 299.35 247.95 278.1 261.95 268.6 268.25 257.65 262.35 229.2 246.85 196.05 252 190.85 252.8 186.75 255.8 154.6478515625 279.5583984375 168 320.25 168.6333984375 318.9958984375 169.05 317.65 172.809765625 317.362109375 176.85 314.9 209.45 295.05 243.95 311.4 257.45 317.75 272.05 313.35 314.35234375 300.64609375 330.75 282.8 347.14296875 264.96171875 372.85 264.4 398.55703125 263.83828125 419.1 296.35 439.64765625 328.85390625 464.05 338.75 504.9 355.25 547.7 339.55 579.6 327.85 613.7 336.1 641.4 342.8 669.8 338.45 711.75 332.05 723.5 293.75 736 252.9 726.95 214.75 725.4 232.75 717.3 248.9 698.65 286 654.95 275.75 637.25 271.55 619.7 275.7 584.55 284 549.5 293.95 476.6 314.6 455.2 245.75 493 211.55 545.35 220.5 630.6 235.1 653.5 156.45 659 137.45 666.5 119.55 683.05 80.1 725.2 90
M 385.1 177.75
Q 358.3 170.6 339.75 147.15 321.6 124.3 311.75 97.65 308.75 89.6 313.3 83.25 343.1 41.3 401.95 49.5 421.3 56.4 425.25 77.05 434.4 124.35 413.15 166.45 404.8 183.05 385.1 177.75
M 384.2 151.65
Q 384.3349609375 152.096484375 384.45 152.5 384.5052734375 152.496484375 384.55 152.45 384.3970703125 152.057421875 384.2 151.65
M 373.95 136.5
Q 373.5 136.75 373.5 136.9 375.148046875 154.679296875 384.15 151.5 380.677734375 143.2556640625 373.95 136.5
M 384.95 131.75
Q 382.4037109375 149.2244140625 394.35 148.1 390.94375 139.0587890625 384.95 131.5 384.95 131.6 384.95 131.75
M 416.7 133.5
Q 416.5 124 411.95 116.5 411.45 116.6 411.35 116.9 405.85 129.1 416.45 134 416.7 133.75 416.7 133.5
M 397.95 125.5
Q 397.45 125.6 397.45 125.8 396.4 137.25 406.45 143 406.7 142.75 406.75 142.5 407.4 131.1 397.95 125.5
M 361.95 139.5
Q 361.2 139.75 361.15 140.15 358.5 151.55 368.95 151.25 369.2 150.85 369.15 150.55 367.65 143.5 361.95 139.5
M 369.95 70.5
Q 364.35 78 369.6 88.45 382.3 113.7 407.65 107.85 415.3 106.05 415 99.4 413.45 65.05 369.95 70.5
M 372.45 76
Q 383.3 75 394.1 78.1 405.15 81.3 410.5 91.4 415.1 100.15 404.9 101.1 382.05 103.3 372.45 76
M 334.9 102
Q 330.8 131.05 359.55 126.15 365.1 125.25 366.5 120.85 374.95 93.55 348.95 74.5 337.35 84.6 334.9 102
M 348.2 81.75
Q 353.85 83.5 358.25 89.05 374.25 109 360.1 122.15 355.8 126.15 351.65 121.7 336.6 105.7 348.2 81.75
M 165.8 317.5
Q 165.121484375 316.9201171875 164.75 317.25 165.2798828125 317.394140625 165.8 317.5 Z"/>
</g>
</defs>

<g transform="matrix( 1, 0, 0, 1, 0,0) ">
<use xlink:href="#Layer0_0_FILL"/>
</g>
</svg>
