
<svg xmlns="http://www.w3.org/2000/svg" version="1.1" xmlns:xlink="http://www.w3.org/1999/xlink" preserveAspectRatio="none" x="0px" y="0px" width="775px" height="380px" viewBox="0 0 775 380">
<defs>
<image id="stairs_gif" x="0" y="0" width="450" height="238" xlink:href="file:///D|/SKOLA%20VECI/Somnium%20svg/stairs.gif"/>

<g id="Layer0_0_FILL">
<path fill="#66FF00" stroke="none" d="
M 685.95 154.5
L 685.9 154.5
Q 685.9126953125 154.3064453125 685.9 154.1 687.0673828125 154.41953125 688.2 154.75 687.0724609375 154.26328125 685.95 153.75 685.97578125 153.138671875 685.95 152.5 685.258203125 152.82890625 684.55 153.15 632.1576171875 130.7171875 576.5 111.15 465.80234375 72.2587890625 355.85 32.8 355.90625 32.661328125 355.95 32.5 355.698046875 32.5814453125 355.45 32.65 355.1943359375 32.5876953125 354.95 32.5 354.4046875 32.873828125 354 33.25 353.1154296875 33.6171875 352.15 34.1 321.7826171875 49.8853515625 296.4 69 295.831640625 68.8009765625 295.25 68.6 295.1029296875 68.0517578125 294.95 67.5 294.45 67.6 294.45 67.8 294.390625 68.3697265625 294.3 68.95 292.8490234375 70.0876953125 292.85 71.15 270.49609375 57.0322265625 244.1 51.5 242.065625 50.478125 239 51.5 235.1 55.9 229 58.75 150.98984375 95.83984375 79 137.85 78.49921875 137.6875 78 137.5
L 76.7 137.65
Q 77.40234375 138.02265625 78.1 138.4 76.6884765625 139.2205078125 75.25 140.05 75.1412109375 138.7712890625 75 137.5 75 137.6 74.95 137.75 67.458203125 168.1306640625 73.75 196.5
L 72.7 196.65
Q 73.315625 196.9291015625 73.9 197.2 74.4283203125 199.3595703125 75 201.5 75.6 201.25 75.65 200.95 75.7703125 199.512890625 75.85 198.05 130.653515625 222.6880859375 188.3 240.4 185.927734375 269.4947265625 191 295.5
L 190.3 295.65
Q 190.7068359375 295.8634765625 191.1 296.05 191.534765625 298.173046875 192 300.25 192.35 300 192.4 299.7 192.587109375 298.3068359375 192.75 296.9 252.112890625 327.61328125 322.6 341.6 322.679296875 341.903125 322.7 342.15 321.085546875 343.3326171875 319.45 344.5 320.5 347.25 323.1 345.8 381.0455078125 313.108984375 440.25 287.3 438.6373046875 297.6798828125 442.95 308.5 443.6 308.25 443.75 307.8 444.132421875 306.664453125 444.45 305.55 458.655859375 318.198828125 478.85 323.65 481.9310546875 329.3208984375 490.85 323.7 553.8 284 622.4 253.85 646.1 243.45 669.45 232.8 686.0013671875 225.215625 686.7 218.2 686.8224609375 218.722265625 686.95 219.25 687.3 219 687.35 218.7 690.85 185.25 685.95 154.5
M 239.9 106.75
Q 232.980859375 128.0427734375 238.95 149.2 215.5140625 140.6140625 191 133.5 216.7701171875 121.2412109375 239.9 106.75
M 341.55 194.9
Q 341.430078125 195.0302734375 341.3 195.1 341.32578125 195.0146484375 341.35 194.9 341.45546875 194.9181640625 341.55 194.9
M 339.45 196.5
Q 339.5552734375 196.5609375 339.65 196.6 339.799609375 197.5578125 339.95 198.5 340.6 198.25 340.7 197.85 340.7734375 197.5302734375 340.85 197.2 346.282421875 199.6154296875 353.05 197.05 373.387109375 189.3671875 377.3 177.95 378.0548828125 179.121484375 378.95 180.25 379.2 180.1 379.25 179.95 381.1240234375 168.3755859375 378.45 159.5 404.4759765625 168.316796875 428.45 173.25 406.8658203125 185.116015625 384 195.35 348.1015625 211.3787109375 318.85 232 306.4068359375 220.7724609375 287.4 219.5 289.974609375 195.390625 288.25 174.05 312.558203125 189.396875 339.35 194.5 339.4947265625 195.4470703125 339.6 196.35 339.53828125 196.4333984375 339.45 196.5
M 246.5 54.25
Q 246.5 54.1830078125 246.5 54.1 269.4376953125 68.5982421875 293.95 73 291.7126953125 98.33046875 293.65 121.65 269.2662109375 111.514453125 241.3 102.6 239.867578125 101.9708984375 238 102.5 236.45 103.05 234.45 103.95 206.5 116.95 184.5 134.5 184.95 136.35 186.55 135.6 188.5255859375 134.682421875 190.45 133.75 233.3185546875 157.2388671875 283.15 169.8 281.9384765625 170.2673828125 280.45 170.9 252.6408203125 182.8181640625 229.4 195.75 156.296875 166.9482421875 83.8 139.65 167.362890625 98.2638671875 246.5 54.25
M 683.9 153.5
Q 681.762890625 154.5763671875 679.45 155.85 595.9 202.45 515.45 250.5 552.7 238.4 590.25 214.95 625.6 192.9 664.15 175.9 680.7943359375 168.5646484375 684.7 159.15 680.5869140625 188.633203125 685.9 214.5 580.9681640625 266.9177734375 480.35 321.7 465.5306640625 309.1076171875 444.85 303.95 447.1634765625 294.241796875 444.2 285.6 444.32890625 285.5521484375 444.45 285.5 444.2103515625 285.1166015625 443.9 284.8 443.112890625 282.629296875 441.95 280.5 441.95 280.6 441.9 280.7 441.466796875 281.9576171875 441.1 283.2 439.690234375 282.9517578125 437.95 283.5 434.95 285.3 430.95 286.75 371.876953125 307.9607421875 323.45 341.65 328.38359375 313.0802734375 319.05 289.25 320.1400390625 289.5095703125 321.2 289.75 321.35 289.35 321.3 289.35 320.800390625 289.10078125 320.3 288.85 364.322265625 275.3609375 406.9 252.35 447.65 230.3 490.7 211.85 513.000390625 202.3140625 516.9 189.65 517.173828125 189.7103515625 517.45 189.75 517.45 189.35 517.3 189.3 486.4 173.6 452.95 161.5
L 452.3 161.65
Q 480.4970703125 184.2572265625 516.65 189.65 418.610546875 239.9671875 319.45 287.75 319.392578125 288.1525390625 319.4 288.4 319.003125 288.216015625 318.55 288 318.2740234375 287.253125 317.95 286.5 317.45 286.6 317.45 286.75 317.4494140625 287.1005859375 317.45 287.45 276.691015625 267.4072265625 233.05 252.2 233.35 251.98046875 233.35 251.75 233.3603515625 251.4087890625 233.35 251.05 252.26484375 242.53984375 274 232.35 290.95 224.45 284.95 217.5 255.6076171875 231.2748046875 233.4 250 234.13203125 222.2775390625 231.15 197.9 261.6328125 189.3912109375 286.6 173.35 279.309765625 198.0919921875 286.4 219.6
L 286.3 219.65
Q 286.3748046875 219.715234375 286.45 219.75 286.6892578125 220.518359375 286.95 221.25 287.2 221.1 287.25 220.95 287.275390625 220.7224609375 287.3 220.5 299.491796875 230.619140625 317 233.3 316.344921875 233.783984375 315.7 234.25 316.941015625 233.880078125 318.15 233.5 319.1818359375 233.6349609375 320.2 233.75 320.35 233.35 320.2 233.25 320.0513671875 233.10546875 319.9 232.95 346.208203125 224.6875 373.15 210.8 399.75 197.15 426.95 184.4 449.05 174.05 448.95 161.5 439.8158203125 166.9921875 430.45 172.15 389.7818359375 152.780859375 345.95 139.5 344.8 139.65 345 140 350.6 149.45 364.8 154.7 369.6015625 156.470703125 374.3 158.1 371.6513671875 167.794921875 376.2 176.15 357.794140625 183.3564453125 342.45 194.25 342.0384765625 194.001953125 341.6 193.75 347.252734375 166.31796875 343.95 140.5 343.95 140.6 343.95 140.75 336.2171875 166.3177734375 339.1 192.3 315.440625 178.9173828125 288.95 173.5
L 288.2 173.55
Q 288.17734375 172.9751953125 288.1 172.35 288.7896484375 171.940625 289.45 171.5 289.3896484375 171.4033203125 289.3 171.3 290.26171875 171.532421875 291.2 171.75 291.35 171 291.15 170.9 267.1546875 159.7341796875 241.9 150.3 243.20625 127.6544921875 241.2 105.9 241.9048828125 105.5009765625 242.55 105.05 264.3990234375 121.6955078125 293.75 122.7 293.8642578125 123.609375 293.95 124.5 294.45 124.35 294.55 124.1 294.74296875 123.421484375 294.9 122.75 295.06328125 122.7470703125 295.2 122.75 295.35 122.35 295.3 122.35 295.1798828125 122.299609375 295.05 122.25 301.5080078125 98.0697265625 296.6 74.4 297.0564453125 74.5740234375 297.55 74.75 406.25 113.25 512.95 154.3 540.166015625 164.74375 564.25 168.4 564.1005859375 168.4525390625 563.95 168.5 562.95 168.55 561.8 169 536.02421875 178.6720703125 517.35 193.7 517.1716796875 193.0970703125 516.95 192.5 516.45 192.6 516.45 192.75 514.5 222.3 518.95 248.25 519.35 248 519.4 247.65 526.0396484375 219.478515625 517.85 195.1 518.741015625 195.4505859375 519.8 195.05 547.5 184.5 570.45 170.5 570.2 170.1 569.9 169.8 569.5181640625 169.3931640625 569.1 169.05 569.77578125 169.1705078125 570.45 169.25 545.9 156.4 516.85 146.15 408.4419921875 107.750390625 300.05 70.25 315.9798828125 63.623046875 331.3 55.85 348.4236328125 47.147265625 353.95 37.3 355.0470703125 38.1814453125 357.15 39 382.9 49 408.95 59.15 438.35 70.65 468.4 81.8 576.3923828125 121.9478515625 683.9 153.5
M 228.2 196.4
Q 227.48125 196.836328125 226.75 197.25 228 198.75 229.9 198.25 229.981640625 198.227734375 230.05 198.2 223.1880859375 226.0259765625 232.45 250.8 231.94609375 251.22109375 231.45 251.65 231.2197265625 251.57578125 231 251.5
L 230.3 251.65
Q 230.62421875 251.8646484375 230.95 252.05 230.848828125 252.1638671875 230.75 252.25 230.8880859375 252.187890625 231 252.1 269.463671875 277.3724609375 317.45 288.85 317.594140625 315.7529296875 322.45 340.7 258.029296875 317.1916015625 192.85 296.1 196.1689453125 266.987890625 189.6 240.8 190.303515625 241.037890625 191 241.25 191.25 240.5 191.15 240.45 190.209765625 239.97734375 189.25 239.5 189.1361328125 239.0060546875 189 238.5 188.5 238.6 188.45 238.8 188.437109375 238.94453125 188.4 239.1 135.4806640625 212.8275390625 75.95 197 78.0232421875 168.6353515625 75.45 141.95 76.7623046875 143.1513671875 78.9 142.1 80.512890625 141.3033203125 82.1 140.5 152.4583984375 177.042578125 228.2 196.4
M 231.8 251.75
Q 232.2427734375 251.5873046875 232.65 251.4 232.8201171875 251.7814453125 232.95 252.15 232.391015625 251.97734375 231.8 251.75 Z"/>
</g>
</defs>

<g transform="matrix( 1, 0, 0, 1, 0,0) ">
<use xlink:href="#Layer0_0_FILL"/>
</g>

<g transform="matrix( 1.497772216796875, 0, 0, 1.6134490966796875, -598.55,388.45) ">
<use xlink:href="#stairs_gif"/>
</g>
</svg>
